<mxfile host="app.diagrams.net" modified="2023-03-08T18:19:46.829Z" agent="5.0 (Windows NT 10.0; Win64; x64) AppleWebKit/537.36 (KHTML, like Gecko) Chrome/110.0.0.0 Safari/537.36" etag="1_m947fKESbE1kUr8myX" version="21.0.2" type="github">
  <diagram id="oo97ls6cd10KMVHbHpVY" name="Page-1">
    <mxGraphModel dx="2364" dy="1495" grid="1" gridSize="10" guides="1" tooltips="1" connect="1" arrows="1" fold="1" page="1" pageScale="1" pageWidth="1169" pageHeight="827" math="0" shadow="0">
      <root>
        <mxCell id="0" />
        <mxCell id="1" parent="0" />
        <mxCell id="XzZwgHtmHbex87OPeKeP-1" value="Cliente" style="swimlane;fontStyle=1;align=center;verticalAlign=top;childLayout=stackLayout;horizontal=1;startSize=26;horizontalStack=0;resizeParent=1;resizeParentMax=0;resizeLast=0;collapsible=1;marginBottom=0;" parent="1" vertex="1">
          <mxGeometry x="-150" y="-10" width="630" height="160" as="geometry" />
        </mxCell>
        <mxCell id="XzZwgHtmHbex87OPeKeP-2" value="+ Id: int&#xa;String : nombre" style="text;strokeColor=none;fillColor=none;align=left;verticalAlign=top;spacingLeft=4;spacingRight=4;overflow=hidden;rotatable=0;points=[[0,0.5],[1,0.5]];portConstraint=eastwest;" parent="XzZwgHtmHbex87OPeKeP-1" vertex="1">
          <mxGeometry y="26" width="630" height="44" as="geometry" />
        </mxCell>
        <mxCell id="XzZwgHtmHbex87OPeKeP-3" value="" style="line;strokeWidth=1;fillColor=none;align=left;verticalAlign=middle;spacingTop=-1;spacingLeft=3;spacingRight=3;rotatable=0;labelPosition=right;points=[];portConstraint=eastwest;strokeColor=inherit;" parent="XzZwgHtmHbex87OPeKeP-1" vertex="1">
          <mxGeometry y="70" width="630" height="8" as="geometry" />
        </mxCell>
        <mxCell id="XzZwgHtmHbex87OPeKeP-4" value="+ alquierCoche(String Modelo,String Tipodealquiler,int Fecha inicio, Fecha final): String" style="text;strokeColor=none;fillColor=none;align=left;verticalAlign=top;spacingLeft=4;spacingRight=4;overflow=hidden;rotatable=0;points=[[0,0.5],[1,0.5]];portConstraint=eastwest;" parent="XzZwgHtmHbex87OPeKeP-1" vertex="1">
          <mxGeometry y="78" width="630" height="82" as="geometry" />
        </mxCell>
        <mxCell id="XzZwgHtmHbex87OPeKeP-7" value="Coche" style="swimlane;fontStyle=1;align=center;verticalAlign=top;childLayout=stackLayout;horizontal=1;startSize=26;horizontalStack=0;resizeParent=1;resizeParentMax=0;resizeLast=0;collapsible=1;marginBottom=0;" parent="1" vertex="1">
          <mxGeometry x="1160" y="-40" width="160" height="140" as="geometry" />
        </mxCell>
        <mxCell id="XzZwgHtmHbex87OPeKeP-8" value="+ matricula: String&#xa;+ modelo : String" style="text;strokeColor=none;fillColor=none;align=left;verticalAlign=top;spacingLeft=4;spacingRight=4;overflow=hidden;rotatable=0;points=[[0,0.5],[1,0.5]];portConstraint=eastwest;" parent="XzZwgHtmHbex87OPeKeP-7" vertex="1">
          <mxGeometry y="26" width="160" height="54" as="geometry" />
        </mxCell>
        <mxCell id="XzZwgHtmHbex87OPeKeP-9" value="" style="line;strokeWidth=1;fillColor=none;align=left;verticalAlign=middle;spacingTop=-1;spacingLeft=3;spacingRight=3;rotatable=0;labelPosition=right;points=[];portConstraint=eastwest;strokeColor=inherit;" parent="XzZwgHtmHbex87OPeKeP-7" vertex="1">
          <mxGeometry y="80" width="160" height="8" as="geometry" />
        </mxCell>
        <mxCell id="XzZwgHtmHbex87OPeKeP-10" value="+ getModelo(String):String&#xa;+ getMatricula(String):String" style="text;strokeColor=none;fillColor=none;align=left;verticalAlign=top;spacingLeft=4;spacingRight=4;overflow=hidden;rotatable=0;points=[[0,0.5],[1,0.5]];portConstraint=eastwest;" parent="XzZwgHtmHbex87OPeKeP-7" vertex="1">
          <mxGeometry y="88" width="160" height="52" as="geometry" />
        </mxCell>
        <mxCell id="XzZwgHtmHbex87OPeKeP-11" value="Oficina" style="swimlane;fontStyle=1;align=center;verticalAlign=top;childLayout=stackLayout;horizontal=1;startSize=26;horizontalStack=0;resizeParent=1;resizeParentMax=0;resizeLast=0;collapsible=1;marginBottom=0;" parent="1" vertex="1">
          <mxGeometry x="1160" y="150" width="160" height="140" as="geometry" />
        </mxCell>
        <mxCell id="XzZwgHtmHbex87OPeKeP-12" value="+ direccion: String&#xa;+ extracharge : float" style="text;strokeColor=none;fillColor=none;align=left;verticalAlign=top;spacingLeft=4;spacingRight=4;overflow=hidden;rotatable=0;points=[[0,0.5],[1,0.5]];portConstraint=eastwest;" parent="XzZwgHtmHbex87OPeKeP-11" vertex="1">
          <mxGeometry y="26" width="160" height="54" as="geometry" />
        </mxCell>
        <mxCell id="XzZwgHtmHbex87OPeKeP-13" value="" style="line;strokeWidth=1;fillColor=none;align=left;verticalAlign=middle;spacingTop=-1;spacingLeft=3;spacingRight=3;rotatable=0;labelPosition=right;points=[];portConstraint=eastwest;strokeColor=inherit;" parent="XzZwgHtmHbex87OPeKeP-11" vertex="1">
          <mxGeometry y="80" width="160" height="8" as="geometry" />
        </mxCell>
        <mxCell id="XzZwgHtmHbex87OPeKeP-14" value="+ getdireccion(Stirng):String&#xa;+ getextracharge(float):float" style="text;strokeColor=none;fillColor=none;align=left;verticalAlign=top;spacingLeft=4;spacingRight=4;overflow=hidden;rotatable=0;points=[[0,0.5],[1,0.5]];portConstraint=eastwest;" parent="XzZwgHtmHbex87OPeKeP-11" vertex="1">
          <mxGeometry y="88" width="160" height="52" as="geometry" />
        </mxCell>
        <mxCell id="XzZwgHtmHbex87OPeKeP-15" value="Alquiler" style="swimlane;fontStyle=1;align=center;verticalAlign=top;childLayout=stackLayout;horizontal=1;startSize=20;horizontalStack=0;resizeParent=1;resizeParentMax=0;resizeLast=0;collapsible=1;marginBottom=0;" parent="1" vertex="1">
          <mxGeometry x="630" y="-10" width="210" height="190" as="geometry" />
        </mxCell>
        <mxCell id="XzZwgHtmHbex87OPeKeP-16" value="+ fechaInicio: Int&#xa;+ fechaFin : Int&#xa;+ metododePago: String&#xa;+precio" style="text;strokeColor=none;fillColor=none;align=left;verticalAlign=top;spacingLeft=4;spacingRight=4;overflow=hidden;rotatable=0;points=[[0,0.5],[1,0.5]];portConstraint=eastwest;" parent="XzZwgHtmHbex87OPeKeP-15" vertex="1">
          <mxGeometry y="20" width="210" height="70" as="geometry" />
        </mxCell>
        <mxCell id="XzZwgHtmHbex87OPeKeP-17" value="" style="line;strokeWidth=1;fillColor=none;align=left;verticalAlign=middle;spacingTop=-1;spacingLeft=3;spacingRight=3;rotatable=0;labelPosition=right;points=[];portConstraint=eastwest;strokeColor=inherit;" parent="XzZwgHtmHbex87OPeKeP-15" vertex="1">
          <mxGeometry y="90" width="210" height="10" as="geometry" />
        </mxCell>
        <mxCell id="XzZwgHtmHbex87OPeKeP-18" value="+setfechaInicio(Int):Int&#xa;+setfechaFin(Int): Int&#xa;+setmetododePago(String):String&#xa;+calcularPrecio(float): float&#xa;" style="text;strokeColor=none;fillColor=none;align=left;verticalAlign=top;spacingLeft=4;spacingRight=4;overflow=hidden;rotatable=0;points=[[0,0.5],[1,0.5]];portConstraint=eastwest;" parent="XzZwgHtmHbex87OPeKeP-15" vertex="1">
          <mxGeometry y="100" width="210" height="90" as="geometry" />
        </mxCell>
        <mxCell id="XzZwgHtmHbex87OPeKeP-19" value="AlquilaWeb" style="swimlane;fontStyle=1;align=center;verticalAlign=top;childLayout=stackLayout;horizontal=1;startSize=26;horizontalStack=0;resizeParent=1;resizeParentMax=0;resizeLast=0;collapsible=1;marginBottom=0;" parent="1" vertex="1">
          <mxGeometry x="520" y="316" width="160" height="84" as="geometry" />
        </mxCell>
        <mxCell id="XzZwgHtmHbex87OPeKeP-21" value="" style="line;strokeWidth=1;fillColor=none;align=left;verticalAlign=middle;spacingTop=-1;spacingLeft=3;spacingRight=3;rotatable=0;labelPosition=right;points=[];portConstraint=eastwest;strokeColor=inherit;" parent="XzZwgHtmHbex87OPeKeP-19" vertex="1">
          <mxGeometry y="26" width="160" height="8" as="geometry" />
        </mxCell>
        <mxCell id="XzZwgHtmHbex87OPeKeP-22" value="+calcularPrecio(float): type" style="text;strokeColor=none;fillColor=none;align=left;verticalAlign=top;spacingLeft=4;spacingRight=4;overflow=hidden;rotatable=0;points=[[0,0.5],[1,0.5]];portConstraint=eastwest;" parent="XzZwgHtmHbex87OPeKeP-19" vertex="1">
          <mxGeometry y="34" width="160" height="50" as="geometry" />
        </mxCell>
        <mxCell id="XzZwgHtmHbex87OPeKeP-23" value="AlquilaOficina" style="swimlane;fontStyle=1;align=center;verticalAlign=top;childLayout=stackLayout;horizontal=1;startSize=26;horizontalStack=0;resizeParent=1;resizeParentMax=0;resizeLast=0;collapsible=1;marginBottom=0;" parent="1" vertex="1">
          <mxGeometry x="760" y="311" width="160" height="94" as="geometry" />
        </mxCell>
        <mxCell id="XzZwgHtmHbex87OPeKeP-25" value="" style="line;strokeWidth=1;fillColor=none;align=left;verticalAlign=middle;spacingTop=-1;spacingLeft=3;spacingRight=3;rotatable=0;labelPosition=right;points=[];portConstraint=eastwest;strokeColor=inherit;" parent="XzZwgHtmHbex87OPeKeP-23" vertex="1">
          <mxGeometry y="26" width="160" height="8" as="geometry" />
        </mxCell>
        <mxCell id="XzZwgHtmHbex87OPeKeP-26" value="+calcularPrecio(float): float" style="text;strokeColor=none;fillColor=none;align=left;verticalAlign=top;spacingLeft=4;spacingRight=4;overflow=hidden;rotatable=0;points=[[0,0.5],[1,0.5]];portConstraint=eastwest;" parent="XzZwgHtmHbex87OPeKeP-23" vertex="1">
          <mxGeometry y="34" width="160" height="60" as="geometry" />
        </mxCell>
        <mxCell id="XzZwgHtmHbex87OPeKeP-30" value="" style="endArrow=diamondThin;endFill=0;endSize=24;html=1;rounded=0;" parent="1" source="XzZwgHtmHbex87OPeKeP-15" target="XzZwgHtmHbex87OPeKeP-1" edge="1">
          <mxGeometry width="160" relative="1" as="geometry">
            <mxPoint x="560" y="110" as="sourcePoint" />
            <mxPoint x="690" y="150" as="targetPoint" />
          </mxGeometry>
        </mxCell>
        <mxCell id="XzZwgHtmHbex87OPeKeP-45" value="" style="endArrow=classic;html=1;rounded=0;strokeColor=#FFFFFF;" parent="1" edge="1">
          <mxGeometry width="50" height="50" relative="1" as="geometry">
            <mxPoint x="700" y="300" as="sourcePoint" />
            <mxPoint x="730" y="210" as="targetPoint" />
          </mxGeometry>
        </mxCell>
        <mxCell id="XzZwgHtmHbex87OPeKeP-47" value="" style="endArrow=classic;html=1;rounded=0;strokeColor=#FFFFFF;" parent="1" edge="1">
          <mxGeometry width="50" height="50" relative="1" as="geometry">
            <mxPoint x="770" y="190" as="sourcePoint" />
            <mxPoint x="820" y="140" as="targetPoint" />
          </mxGeometry>
        </mxCell>
        <mxCell id="XzZwgHtmHbex87OPeKeP-48" value="" style="endArrow=classic;html=1;rounded=0;strokeColor=#FFFFFF;" parent="1" edge="1">
          <mxGeometry width="50" height="50" relative="1" as="geometry">
            <mxPoint x="770" y="190" as="sourcePoint" />
            <mxPoint x="820" y="140" as="targetPoint" />
          </mxGeometry>
        </mxCell>
        <mxCell id="99Twq04pVlAFAAEwLXUK-2" value="Extends" style="endArrow=block;endSize=16;endFill=0;html=1;rounded=0;" edge="1" parent="1" source="XzZwgHtmHbex87OPeKeP-19" target="XzZwgHtmHbex87OPeKeP-15">
          <mxGeometry width="160" relative="1" as="geometry">
            <mxPoint x="920" y="270" as="sourcePoint" />
            <mxPoint x="1080" y="270" as="targetPoint" />
          </mxGeometry>
        </mxCell>
        <mxCell id="99Twq04pVlAFAAEwLXUK-3" value="Extends" style="endArrow=block;endSize=16;endFill=0;html=1;rounded=0;" edge="1" parent="1" source="XzZwgHtmHbex87OPeKeP-23" target="XzZwgHtmHbex87OPeKeP-15">
          <mxGeometry width="160" relative="1" as="geometry">
            <mxPoint x="631" y="326" as="sourcePoint" />
            <mxPoint x="698" y="190" as="targetPoint" />
          </mxGeometry>
        </mxCell>
        <mxCell id="99Twq04pVlAFAAEwLXUK-4" value="" style="endArrow=diamondThin;endFill=0;endSize=24;html=1;rounded=0;" edge="1" parent="1" source="XzZwgHtmHbex87OPeKeP-11" target="XzZwgHtmHbex87OPeKeP-15">
          <mxGeometry width="160" relative="1" as="geometry">
            <mxPoint x="770" y="150" as="sourcePoint" />
            <mxPoint x="930" y="150" as="targetPoint" />
          </mxGeometry>
        </mxCell>
        <mxCell id="99Twq04pVlAFAAEwLXUK-5" value="" style="endArrow=diamondThin;endFill=0;endSize=24;html=1;rounded=0;" edge="1" parent="1" source="XzZwgHtmHbex87OPeKeP-7" target="XzZwgHtmHbex87OPeKeP-15">
          <mxGeometry width="160" relative="1" as="geometry">
            <mxPoint x="710" y="120" as="sourcePoint" />
            <mxPoint x="840" y="110" as="targetPoint" />
          </mxGeometry>
        </mxCell>
      </root>
    </mxGraphModel>
  </diagram>
</mxfile>
